<svg class="absolute left-[55%] -bottom-[20%] hidden h-[150px] w-[580px] -translate-x-1/2 -translate-y-1/2 transform lg:block" fill="none" data-reveal="in-fade"><path d="M1 1c7.255 23.316 12.132 49.428 31.848 67.45 11.32 10.349 16.684 18.72 32.52 24.395 13.96 5.003 51.325 18.606 66.469 5.364 7.463-6.526 16.624-20.318 3.781-26.82-6.446-3.262-17.016-2.214-24.201-1.616-5.314.443-6.954 5.964-8.739 9.258-5.374 9.922-2.814 24.311 4.874 32.256 17.363 17.942 41.593 32.2 69.242 35.71 22.248 2.823 45.197 1.977 67.561 4.041 34.213 3.157 70.887 7.217 104.031 15.577 18.72 4.721 37.381 9.547 56.133 14.18 10.798 2.669 27.801 6.337 37.726 11.137C463.073 201.574 473.557 214.827 479 218" stroke="#AAD1B6" stroke-width="2" stroke-linecap="round" stroke-linejoin="round" stroke-dasharray="4 8 4 8"></path></svg>